<svg xmlns="http://www.w3.org/2000/svg" xmlns:xlink="http://www.w3.org/1999/xlink" viewBox="0 0 556.56 567.68"><defs><style>.cls-1{fill:url(#linear-gradient);}.cls-2{opacity:0.7;}.cls-3{fill:url(#linear-gradient-2);}.cls-4,.cls-7{stroke:#959595;}.cls-4,.cls-5,.cls-6,.cls-7{stroke-width:0.03px;}.cls-4{fill:url(#linear-gradient-3);}.cls-5,.cls-6{stroke:#202020;}.cls-5{fill:url(#linear-gradient-4);}.cls-6{fill:url(#linear-gradient-5);}.cls-7{fill:url(#linear-gradient-6);}.cls-8{fill:url(#linear-gradient-7);}.cls-9{fill:url(#linear-gradient-8);}.cls-10{fill:url(#linear-gradient-9);}.cls-11{fill:url(#linear-gradient-10);}.cls-12{fill:url(#linear-gradient-11);}.cls-13{fill:#fff;}.cls-14,.cls-26{fill:none;stroke:#fff;}.cls-14{stroke-width:0;}.cls-15,.cls-26{font-size:60px;font-family:CheeseCookies, Cheese Cookies;}.cls-16{fill:url(#linear-gradient-12);}.cls-17{fill:url(#linear-gradient-13);}.cls-18{fill:url(#linear-gradient-14);}.cls-19{fill:url(#linear-gradient-15);}.cls-20{fill:url(#linear-gradient-16);}.cls-21{fill:url(#linear-gradient-17);}.cls-22{fill:url(#linear-gradient-18);}.cls-23{fill:url(#linear-gradient-19);}.cls-24{fill:url(#linear-gradient-20);}.cls-25{fill:url(#linear-gradient-21);}.cls-26{stroke-miterlimit:10;stroke-width:0.25px;}</style><linearGradient id="linear-gradient" x1="514.08" y1="362.3" x2="355.92" y2="270.99" gradientTransform="translate(-179.83 129.42) rotate(-23.16)" gradientUnits="userSpaceOnUse"><stop offset="0" stop-color="#65c8d0"/><stop offset="1" stop-color="#ba9bc9"/></linearGradient><linearGradient id="linear-gradient-2" x1="512.55" y1="358" x2="357.2" y2="268.31" gradientTransform="translate(-81.43 146.57) rotate(-23.16)" xlink:href="#linear-gradient"/><linearGradient id="linear-gradient-3" x1="517.32" y1="359.37" x2="360.03" y2="268.56" gradientTransform="translate(-81.43 146.57) rotate(-23.16)" xlink:href="#linear-gradient"/><linearGradient id="linear-gradient-4" x1="454.03" y1="281.62" x2="359.65" y2="227.13" gradientTransform="translate(-31.02 54.4) rotate(-8.35)" xlink:href="#linear-gradient"/><linearGradient id="linear-gradient-5" x1="499.34" y1="365.46" x2="444.6" y2="333.85" gradientTransform="translate(-81.43 146.57) rotate(-23.16)" xlink:href="#linear-gradient"/><linearGradient id="linear-gradient-6" x1="486.4" y1="358.94" x2="430.43" y2="326.62" gradientTransform="translate(-81.43 146.57) rotate(-23.16)" xlink:href="#linear-gradient"/><linearGradient id="linear-gradient-7" x1="333.75" y1="158.38" x2="357.21" y2="158.38" gradientTransform="translate(3.36 -7.17) rotate(1.19)" xlink:href="#linear-gradient"/><linearGradient id="linear-gradient-8" x1="167.75" y1="204.47" x2="357.23" y2="204.47" gradientTransform="matrix(1, 0, 0, 1, 0, 0)" xlink:href="#linear-gradient"/><linearGradient id="linear-gradient-9" x1="332.72" y1="172.61" x2="356.78" y2="172.61" gradientTransform="matrix(1, 0, 0, 1, 0, 0)" xlink:href="#linear-gradient"/><linearGradient id="linear-gradient-10" x1="175.63" y1="227.97" x2="179.09" y2="227.97" gradientTransform="matrix(1, 0, 0, 1, 0, 0)" xlink:href="#linear-gradient"/><linearGradient id="linear-gradient-11" x1="237.41" y1="102.73" x2="385.92" y2="102.73" gradientTransform="matrix(0.88, 0.36, -0.38, 0.93, 90.86, -65.22)" gradientUnits="userSpaceOnUse"><stop offset="0" stop-color="#be87b9"/><stop offset="0.65" stop-color="#81b4c9"/><stop offset="1" stop-color="#65c8d0"/></linearGradient><linearGradient id="linear-gradient-12" x1="117.19" y1="370.15" x2="161.35" y2="370.15" gradientTransform="matrix(1, 0, 0, 1, 0, 0)" xlink:href="#linear-gradient"/><linearGradient id="linear-gradient-13" x1="152.83" y1="368.86" x2="192.55" y2="368.86" gradientTransform="matrix(1, 0, 0, 1, 0, 0)" xlink:href="#linear-gradient"/><linearGradient id="linear-gradient-14" x1="198.61" y1="358.93" x2="271.51" y2="358.93" gradientTransform="matrix(1, 0, 0, 1, 0, 0)" xlink:href="#linear-gradient"/><linearGradient id="linear-gradient-15" x1="263.17" y1="370.66" x2="312.49" y2="370.66" gradientTransform="matrix(1, 0, 0, 1, 0, 0)" xlink:href="#linear-gradient"/><linearGradient id="linear-gradient-16" x1="302.53" y1="369.73" x2="342.85" y2="369.73" gradientTransform="matrix(1, 0, 0, 1, 0, 0)" xlink:href="#linear-gradient"/><linearGradient id="linear-gradient-17" x1="328.21" y1="369.76" x2="362.23" y2="369.76" gradientTransform="matrix(1, 0, 0, 1, 0, 0)" xlink:href="#linear-gradient"/><linearGradient id="linear-gradient-18" x1="360.25" y1="357.64" x2="401.47" y2="357.64" gradientTransform="matrix(1, 0, 0, 1, 0, 0)" xlink:href="#linear-gradient"/><linearGradient id="linear-gradient-19" x1="398.95" y1="356.26" x2="466.98" y2="356.26" gradientTransform="matrix(1, 0, 0, 1, 0, 0)" xlink:href="#linear-gradient"/><linearGradient id="linear-gradient-20" x1="453.85" y1="386.38" x2="496.98" y2="386.38" gradientTransform="matrix(1, 0, 0, 1, 0, 0)" xlink:href="#linear-gradient"/><linearGradient id="linear-gradient-21" x1="490.09" y1="386.38" x2="533.22" y2="386.38" gradientTransform="matrix(1, 0, 0, 1, 0, 0)" xlink:href="#linear-gradient"/></defs><title>V1</title><g id="Layer_2" data-name="Layer 2"><line class="cls-1" x1="256.9" y1="214.3" x2="432.39" y2="284.64"/><g class="cls-2"><path class="cls-3" d="M355.66,238.46s-2.44,1.74-.89-2l1-3.15.42-2.43.89-2.3c.39-.78,3.42-.31,30.75,10.32a273.83,273.83,0,0,1,26.15,9S520.5,291.45,528,296c0,0-66.23-28.71-70.69-29.81,0,0,63.44,27.2,67.88,30.35,0,0-61.43-26.65-67.56-27.35,0,0,56.54,24.53,62.86,28.81,0,0-10.73-5-13.74-6l4.93,2.5-8.21-3.37-4.61-2.25s12.47,6.2,13.16,7.09c0,0,6.13,1.72-17.23-7.36C494.79,288.59,441.23,262.88,355.66,238.46Z" transform="translate(-98.4 -17.15)"/><path class="cls-4" d="M358,228.48s32.72,10.76,65.37,22.69c0,0,70,28.37,77.37,31.75,0,0,20.28,8.26,32,14" transform="translate(-98.4 -17.15)"/><path class="cls-5" d="M411.43,246.44c-16.93-6.91-54.27-18-54.27-18l102.41,37.39C454.05,263.25,411.43,246.44,411.43,246.44Z" transform="translate(-98.4 -17.15)"/><path class="cls-6" d="M459.75,269.45s49.82,21,60.55,26" transform="translate(-98.4 -17.15)"/><path class="cls-7" d="M443.92,268s57.21,24.45,61.87,26.88" transform="translate(-98.4 -17.15)"/></g><text x="-98.4" y="-17.15"/></g><g id="Layer_3" data-name="Layer 3"><path class="cls-8" d="M355.23,173.61c.2.62.4,1.24.59,1.81.76,2.28,1.17,3.83.86,2a73,73,0,0,0-4.17-12.77,80,80,0,0,0-6.57-12c-.81-1.32-1.55-2.72-2.44-4,.34.63.68,1.25,1,1.93-.93-1.36-2-2.65-3-4s-2-2.66-3-4l.13.2c-.58-.76-1.18-1.52-1.82-2.23-1.86-2.1-.28-.79-1.62-2.16l-1,2.43c3.37,3.26,4.23,5.06,7,8.8A91.1,91.1,0,0,1,349,162.12a89,89,0,0,1,5.62,13.48c-.07-.53-.11-1-.2-1.59a7.6,7.6,0,0,0-.6-1.83l.72.55-.4-1.19c-.25-.71-.51-1.68-.9-2.61a19.52,19.52,0,0,1,1.3,2.84Z" transform="translate(-98.4 -17.15)"/><path class="cls-9" d="M330.69,270.52a91.2,91.2,0,0,1-16,12.45A93.66,93.66,0,0,1,300,290.34L297,291.4c-.9.33-1.72.62-2.47.83l-3.32,1c-.7.19-1,.21-.75.13l2.25-.77,2.36-.79c.92-.33,2-.76,3.2-1.22s2.56-1,4.06-1.7,3.12-1.47,4.91-2.34a97.33,97.33,0,0,0,12.06-7.37,93.37,93.37,0,0,0,14.05-12.42c1.17-1.33,2.43-2.64,3.58-4.12l1.79-2.21L340.5,258c.29-.4.59-.8.88-1.21l.83-1.26c.56-.84,1.15-1.69,1.7-2.57,1.07-1.79,2.2-3.6,3.2-5.55s2-4,3-6l1.34-3.23c.47-1.08.82-2.22,1.24-3.35a91.48,91.48,0,0,0,3.81-14.61c-.27,1-1,4.47-2.4,9.08a89.75,89.75,0,0,1-6.54,15.53,86.91,86.91,0,0,1-9.1,13.68c-.69.9-1.38,1.69-2,2.38s-1.17,1.33-1.64,1.85a23.3,23.3,0,0,1-1.78,1.74c-.34.11,2.68-2.92,6.55-8.17,1-1.32,2-2.78,3-4.33s2.09-3.24,3.06-5.05,2-3.67,2.94-5.59c.47-1,.88-2,1.33-3,.22-.49.45-1,.66-1.49l.58-1.53a87.84,87.84,0,0,0,5.61-23.1,74.87,74.87,0,0,0,.41-7.61,15.42,15.42,0,0,0-.05-2.52c-.09.4-.2,1.3-.33,2.58-.06.64-.13,1.37-.2,2.18l-.36,2.64c-.06.48-.12,1-.18,1.48s-.18,1-.27,1.54c-.19,1.06-.36,2.16-.59,3.29l-.77,3.47c-.27,1.18-.64,2.36-.95,3.55a96.25,96.25,0,0,1-4.86,13.23c-1.77,3.77-3.39,6.67-4.13,8-1,2.09-2.06,3.75-2.08,4.61l-1.65,2.54L339,253.64l-.82,1.17-.86,1.12-1.72,2.25a93.56,93.56,0,0,1-8,8.82,90.25,90.25,0,0,1-27.39,18.59,75.11,75.11,0,0,1-33.81,6.14c-1-.08-2.8.06-4.66.08s-3.78.1-5,0l-3.24-.4-3.21-.58c-1.07-.18-2.13-.43-3.18-.7s-2.12-.48-3.16-.81a90.28,90.28,0,0,1-12.25-4.5,107.12,107.12,0,0,1-11.51-6.2A129.77,129.77,0,0,1,209.5,271a70.68,70.68,0,0,1-11.39-11.79,119.21,119.21,0,0,1-9-13.59A80.54,80.54,0,0,1,178,209.31a86.45,86.45,0,0,1,6.21-37.94c-.67.19-.14-1.68.71-3.93.48-1.1,1-2.29,1.56-3.38s1.09-2,1.44-2.64a90,90,0,0,1,76.78-46.5,84.14,84.14,0,0,1,17.42,1.47,78.56,78.56,0,0,1,13.28,3.67l1.5-3.48a90.43,90.43,0,0,0-9.37-2.79,91.35,91.35,0,0,0-14.41-2.37c-1-.15-2-.2-3-.27l-3-.22-3-.08-1.5,0-1.49,0-3,.06c-1,0-2,.14-3,.2-2,.1-3.95.39-5.93.62-1,.1-2,.32-2.94.47s-2,.3-3,.54c-1.94.44-3.9.83-5.82,1.41a88.66,88.66,0,0,0-32.65,16.68c-1.68,1.3-3.23,2.76-4.84,4.19-.78.74-1.53,1.51-2.31,2.27l-1.15,1.15-1.1,1.2a84.93,84.93,0,0,0-8.23,10.45,78.69,78.69,0,0,1,12.81-14.45A82,82,0,0,1,214,125.78a93.2,93.2,0,0,0-24.09,22l-1.19,1.75-1.1,1.74c-.73,1.14-1.47,2.23-2.13,3.33l-1.61,2.62c-.49.91-1,1.81-1.48,2.71a86.79,86.79,0,0,0-7.42,15.68c-9.59,28.28-4.86,60.23,12.67,85.48a95.54,95.54,0,0,1-18.34-48.86,98.07,98.07,0,0,1,.19-17.31A94.6,94.6,0,0,1,199,135.12,96,96,0,0,1,226.92,117a94,94,0,0,1,32-7.32,91.8,91.8,0,0,1,16.33.59,96,96,0,0,1,15.88,3.35c2,.61,4,1.31,6,2.07l1.37-2.73c-1.1-.42-3,.29-4.14-.09a95.31,95.31,0,0,0-55.77-1.63,96.5,96.5,0,0,0-48.06,30.85c-1.61,1.84-3.05,3.81-4.53,5.75s-2.8,4-4.05,6.13a92.28,92.28,0,0,0-6.71,13.09,96.69,96.69,0,0,0-7.13,28.67c-.24,2.52-.37,5.07-.41,7.64.12.36.26.59.42.58a100.45,100.45,0,0,0,2.26,22.85c.18.72.34,1.44.54,2.16a89.17,89.17,0,0,0,5.94,15.8,91.59,91.59,0,0,0,8.7,14.23c2.21,3,5.24,7,8.51,10.75a70.14,70.14,0,0,0,9.93,9.51,103.08,103.08,0,0,0,46.67,20.61c16.89,2.76,34.15.85,48.51-5a102.31,102.31,0,0,0,11-4.36c-4.36,1.68-9.15,3.49-13.23,4.79a7.49,7.49,0,0,1-1.27.27l-2.48.87a151.31,151.31,0,0,1-19.23,2.76,108.35,108.35,0,0,1-23.53-.76l-3.09-.46-3.09-.61-1.55-.31c-.51-.11-1-.25-1.54-.37l-3.08-.78a97.1,97.1,0,0,1-12-4.16A91.58,91.58,0,0,1,205,279.4c-.88-.67-1.73-1.38-2.56-2.11s-1.69-1.43-2.5-2.17c-1.59-1.53-3.23-3-4.72-4.63a93.11,93.11,0,0,1-8.43-10.09c.49.59,1.09,1.22,1.75,1.89l2.07,2.15,2.22,2.2c.73.74,1.43,1.49,2.13,2.16a99.09,99.09,0,0,0,22.63,17.85,88.09,88.09,0,0,0,25.94,9.93,92.1,92.1,0,0,1-12.15-4.42c-2-.82-3.93-1.82-5.93-2.76-1-.49-2-1-3-1.55l-1.52-.78-1.5-.85c-1-.58-2.1-1.11-3.21-1.73l-3.43-1.87a43.09,43.09,0,0,1-6.12-4.12,116.47,116.47,0,0,1-11.94-11,104.32,104.32,0,0,1-9.56-11.91,83,83,0,0,1-7.39-13.11,74.19,74.19,0,0,1-5-14.69c-.13-.52-.22-1-.29-1.46s-.07-.91-.1-1.35a16.38,16.38,0,0,0-.22-2,88.86,88.86,0,0,0,13.58,31.78,101.59,101.59,0,0,0,24.9,25.48L213,282l2.19,1.5c1.41,1,2.81,1.85,4.26,2.74,3.17,1.61,6.18,2.93,8.77,4A72.25,72.25,0,0,0,246,295.71l1.84.32,1.79.21c1.17.12,2.3.27,3.4.34,2.22.11,4.31.27,6.4.21h3.13l3.17-.14,1.63-.07,1.67-.13c1.13-.09,2.29-.14,3.5-.25a157,157,0,0,0,17.37-2.51,146.12,146.12,0,0,1-22.81,3.57c-4,.22-7.95.32-11.43.16-1.74-.07-3.38-.11-4.86-.27s-2.83-.21-4-.38a96.88,96.88,0,0,0,35.35,0,101.15,101.15,0,0,0,19.14-5.56,112.45,112.45,0,0,0,15.58-7.74,88.24,88.24,0,0,0,11.42-8.18c1.3-1.16,2.43-2.17,3.43-3.13s1.84-1.89,2.69-2.78c1.63-1.85,3.19-3.63,5.05-6.09a107.44,107.44,0,0,0,6.88-10,77,77,0,0,0,6.26-13.52,94.18,94.18,0,0,0,2.87-9.48c.41-1.54.67-3.06,1-4.45s.48-2.71.71-3.85c-3.41,15.35-8.8,25.95-13.5,32.63A92.77,92.77,0,0,1,330.69,270.52ZM209.52,277.4a89.06,89.06,0,0,1-15.66-14.34A90.49,90.49,0,0,1,176.44,232l-.12-.37c-.23-.65-.5-1.47-.76-2.47-.18-.65-.39-1.37-.61-2.16l-.06-.22c-.09-.36-.19-.73-.3-1.12s-.14-.64-.21-1c-.29-1.21-.57-2.42-.81-3.64a92.24,92.24,0,0,1-.81-32.11l0,.36c-.1.86-.17,1.53-.2,2a92.59,92.59,0,0,0-.64,13.23c0,1,0,2,.08,3s.14,1.94.21,2.88c0,.47.07.93.1,1.39s.11.9.16,1.35c.11.89.21,1.75.32,2.59a88.91,88.91,0,0,0,2,10.31,91.42,91.42,0,0,0,17.33,34.09A93.92,93.92,0,0,0,207.18,275a95.53,95.53,0,0,0,17.67,10.91A75.4,75.4,0,0,1,209.52,277.4Z" transform="translate(-98.4 -17.15)"/><path class="cls-10" d="M341,155.13l1.5,2.25c1,1.48,1.88,3.07,2.81,4.61a79.68,79.68,0,0,1,9.74,31.64c.13,1.42.2,2.94.37,4.35s.21,2.73.36,3.77c.07.52.14,1,.2,1.33a4.42,4.42,0,0,0,.18.81c.12.31.24.09.34-.85l.25-4.21c0-1.43,0-2.87,0-4.32a99.49,99.49,0,0,0-1.63-11.8l-.28-1.49-.37-1.48c-.24-1-.46-2-.73-3-.59-2-1.12-3.94-1.86-5.87s-1.47-3.86-2.26-5.78c-.43-1-.89-1.88-1.34-2.82-.22-.46-.44-.94-.68-1.4l-.75-1.36a69.34,69.34,0,0,0-6.82-10.38c-2.61-3.62-2.47-4.71-6.08-8l-1.25,4a46.17,46.17,0,0,1,6.69,7.72Z" transform="translate(-98.4 -17.15)"/><path class="cls-11" d="M178,231.07c-.34-1.19-.76-2.69-1.22-4.46s-.84-3.31-1.19-5c.28,1.32.56,2.53.81,3.63.16.7.33,1.4.51,2.09l.06.22q.68,2.52,1.49,5l.38,1.12C179.35,235.09,179,234.06,178,231.07Z" transform="translate(-98.4 -17.15)"/><path class="cls-12" d="M390.34,121.81s-59.16-72.31-46.68-103L282.08,170.07a34.91,34.91,0,0,0-3.94-1.9c-19.84-8.08-42.9,3-50,24.63-5.91,18.09,1.88,37.55,17.9,45.74,19.58,10,43.35.27,51.83-20.54a40.15,40.15,0,0,0,2.41-8.51L342.07,108.8s52.71,24.71,34.26,70c0,0,14.4-13.35,19.71-26.38C396,152.44,402.75,138.29,390.34,121.81Z" transform="translate(-98.4 -17.15)"/><g class="cls-2"><path class="cls-13" d="M389.54,122.19,374.4,99.31l-3-5c-1.94-3.31-4.81-8.26-8.32-14.86a219.67,219.67,0,0,1-11.51-25A95.45,95.45,0,0,1,346.88,38a43.53,43.53,0,0,1-.77-9,22.18,22.18,0,0,1,1.71-8.49l-8.33-3.39c-8.43,19-18.1,41.23-28.8,66.42q-8,18.89-16.8,40-4.35,10.56-8.92,21.63-2.27,5.53-4.58,11.21l-2,4.87s0-.08.06-.1l.07.05h0L278,161a18.74,18.74,0,0,0-2.45-.75,42,42,0,0,0-10.24-1.36A43.52,43.52,0,0,0,245,163.69a46.35,46.35,0,0,0-16,13.77,22.42,22.42,0,0,0-1.5,2.24L226.08,182c-.8,1.61-1.66,3.21-2.35,4.87a46.59,46.59,0,0,0-3,10.46,31.63,31.63,0,0,0-.42,3.9l-.11,1.19c-.06.79,0,2-.06,3.57a45.09,45.09,0,0,0,2.59,13.93,41.35,41.35,0,0,0,4.74,9.49c.57.81,1.09,1.67,1.75,2.47l2,2.45,2.33,2.37c.81.8,1.73,1.5,2.63,2.28A41,41,0,0,0,242.4,243a28.93,28.93,0,0,0,3.51,1.65l1.84.78,1.94.61A40.86,40.86,0,0,0,267,247.62l.92-.13,1.11-.17a9.93,9.93,0,0,0,1.49-.29c1.1-.3,2.47-.57,4-1.07l2.39-.87c.42-.16.85-.3,1.29-.48l1.3-.63a42,42,0,0,0,11.19-7.55,44.53,44.53,0,0,0,9.48-12.57l1.66-3.75a38,38,0,0,0,1.34-3.89c.37-1.31.69-2.64.95-4,.12-.62.27-1.52.25-1.55a.75.75,0,0,1,.05-.16c0-.07,0-.07.09-.25l.32-.85,4.93-13c3-8.05,5.46-14.6,6.51-17.75,0,0,4-13.26,12.74-37.58q3.28-9.12,7.44-20.28,1.05-2.79,2.15-5.71c.83-2.18,1.71-4.46,2.66-6.76l.35-.87c0-.12.11,0,.17,0l.21.1.41.19,1.66.8c1.12.55,2.25,1.14,3.4,1.79l1.72,1,1.53.93c1,.62,2,1.24,3,1.91a84.12,84.12,0,0,1,11.48,9.28,65.08,65.08,0,0,1,10,12.4,49,49,0,0,1,6.17,15.93c.1.74.21,1.47.31,2.21a20.55,20.55,0,0,1,.25,2.23l.09,1.69c0,.53,0,1.07,0,1.61s0,1.09-.06,1.63-.13,1.1-.19,1.65a33.08,33.08,0,0,1-.58,3.35,44.11,44.11,0,0,1-1.93,6.28l-.3.81-.07.2s.08-.07.12-.1l.29-.26,1.12-1.05c.75-.72,1.49-1.46,2.24-2.22a78,78,0,0,0,8.79-10.7,52.21,52.21,0,0,0,4.25-7.86,26,26,0,0,0,1.68-8.88,31.42,31.42,0,0,0-1.22-9.28,36.78,36.78,0,0,0-3.88-8.86l.17.27a7.1,7.1,0,0,1,.45.84l.71,1.41a18.55,18.55,0,0,1,.91,2c.28.77.68,1.6,1,2.56.15.48.3,1,.47,1.51l.24.8.19.86.4,1.8c.08.63.17,1.28.26,2s.1,1.37.16,2.09a20.69,20.69,0,0,1,0,2.23,28.12,28.12,0,0,1-.54,4.77,20.7,20.7,0,0,1-1.6,4.95,53.9,53.9,0,0,1-5.83,9.67,83,83,0,0,1-7,8.08c-.64.65-1.29,1.3-2,1.94l-1,1a1.37,1.37,0,0,1-.24.21l.14-.37.27-.73a42,42,0,0,0,1.81-6,32,32,0,0,0,.75-8.67l-.08-1.25-.05-.8-.11-.8c-.17-1.06-.29-2.13-.51-3.2s-.48-2.13-.76-3.19-.66-2.11-1-3.17c-3-8.43-8.67-16.15-15.74-22.63A83.14,83.14,0,0,0,352,113.44l-1.58-1-1.68-1c-1.23-.71-2.45-1.39-3.68-2l-1.84-.91-.92-.43-.47-.22-.11,0s0,.08-.06.11l-.09.25-1.56,4-2.82,7.5q-1.35,3.64-2.73,7.34L329,142s-3.77,6.48-10.32,21c-3.28,7.28-7.25,16.59-11.79,28.11q-1.67,4.34-3.5,9.06c-.6,1.59-1.21,3.2-1.84,4.85l-.93,2.51-.48,1.28a4.89,4.89,0,0,0-.31,1.4,42.38,42.38,0,0,1-9.94,21.47s.2-.38.74-1.23l1.08-1.64c.43-.69.87-1.58,1.45-2.58a34.47,34.47,0,0,0,1.79-3.64l.5-1.09c.16-.38.28-.79.43-1.2l.94-2.62a42.06,42.06,0,0,0,1.46-6.39l.12-.9.12-1a4.44,4.44,0,0,1,.34-1.22l.33-1c.45-1.31.92-2.69,1.42-4.13,4-11.54,9.75-27.22,18.05-48.3,4.15-10.55,8.93-22.44,14.44-35.85.71-1.7,1.42-3.44,2.15-5.19q.88-2.16,1.8-4.35l.45-1.1.48-1c.33-.68.65-1.36,1-2.05l1-2.06c.05-.06.06-.22.14-.2l.27.12.52.26,1.05.51c1.39.69,2.79,1.35,4.21,2.11s2.84,1.6,4.27,2.45l1.62,1c.44.28.88.58,1.32.88a82.5,82.5,0,0,1,19.79,18.3l-.87-1.12c-.6-.8-1.6-2-3.08-3.64a84.67,84.67,0,0,0-17.24-14.22l-.87-.54c-.43-.28-.91-.56-1.38-.84-.95-.54-1.91-1.13-2.9-1.65-2-1.09-4-2-6.14-3l-.4-.19c-.09-.08-.09.06-.13.11l-.1.2-.37.82-.77,1.65c-.51,1.13-1.06,2.18-1.54,3.45q-1.27,3.12-2.62,6.47c-2.62,6.56-5.6,14.06-9,22.6-6.78,17.1-15.18,38.42-25.5,64.88a458.43,458.43,0,0,1,17.29-48.33s-5.51,15.25-16.42,43.94L299,204.68l-1.1,2.89-.4,1c-.09.35-.13.79-.19,1.09-.07.49-.16,1-.26,1.46a36,36,0,0,1-4.5,11.71,36.84,36.84,0,0,1-9.14,10.41,36.09,36.09,0,0,1-13.65,6.59,33.49,33.49,0,0,1-16.43-.1l-2.08-.62c-.35-.11-.7-.19-1-.32l-1-.43-2-.86c-.69-.27-1.31-.69-2-1a37.88,37.88,0,0,1-3.82-2.44c-.6-.47-1.18-1-1.77-1.45-.3-.25-.61-.48-.89-.75l-.82-.82c-.53-.57-1.14-1.07-1.63-1.69l-1.51-1.81c-.5-.62-.92-1.3-1.39-2-.22-.33-.46-.65-.67-1l-.6-1.05c-.38-.71-.85-1.38-1.17-2.13l-1-2.22a37.7,37.7,0,0,1-1.57-4.71,40.56,40.56,0,0,1-1-4.95L227,207c-.1-.85,0-1.71,0-2.57A37.36,37.36,0,0,1,228.47,194a39.26,39.26,0,0,0-1.41,13.23,31,31,0,0,0,.42,3.57l.31,1.66c.09.52,0-.14-.28-1.8a39.67,39.67,0,0,1-.37-8,39.59,39.59,0,0,1,13.11-27l1.87-1.59c.64-.51,1.35-1,2-1.44a40.89,40.89,0,0,1,4.42-2.63,39.54,39.54,0,0,1,10.26-3.32,37.66,37.66,0,0,1,11.37-.05c1,.16,1.91.41,2.87.62a18.08,18.08,0,0,1,2.84.84,34.31,34.31,0,0,1,6.24,2.77c.1,0,.21.07.31.08l.15-.37.3-.75.62-1.5c.4-1,.82-2,1.23-3l2.29-5.62,4.56-11.14c3.08-7.48,6.19-15,9.28-22.55,6.21-15,12.39-29.86,18.17-43.52,11.55-27.31,21.47-49.89,26.67-59.73l1.1-2.66-6.36-2.59a29.71,29.71,0,0,0-2,11.22A58.72,58.72,0,0,0,341.15,45C344.6,56.64,351,69.3,358,80.86c14,23.13,30.21,41.92,31.64,41.54" transform="translate(-98.4 -17.15)"/><path class="cls-14" d="M300.83,216.9l.22-1c.14-.63.33-1.57.53-2.81.09-.62.19-1.31.27-2.08l.06-.59,0-.45a9.41,9.41,0,0,1,.28-1c.54-1.68,1.15-3.62,1.85-5.82,2.8-8.79,7-21.59,12.65-37.64,2.81-8,6-16.87,9.51-26.43l5.55-14.86,3-7.81.77-2c.39-1,.8-2,1.2-3s.84-2.19,1.3-3.21.93-2,1.39-3.08l.71-1.55s0-.17.1-.15l.2.09.38.18.77.36c1,.48,2.05,1,3.08,1.47s2.09,1.07,3.15,1.62,2.12,1.2,3.15,1.84a94.65,94.65,0,0,1,8,5.4,77.13,77.13,0,0,1,14.42,14.06,61.18,61.18,0,0,1,5.77,9,53.51,53.51,0,0,1,4,10.33,49.13,49.13,0,0,1,1.06,5.56,24.64,24.64,0,0,1,.3,2.84l0,1.05A17.89,17.89,0,0,1,384,161a28.68,28.68,0,0,1-1.21,3.69c-.27.55.1.13.25,0l.57-.47c.39-.32.78-.67,1.19-1a35.59,35.59,0,0,0,2.55-2.61c.46-.49.9-1,1.37-1.62l.7-.91.09-.12.14-.23.3-.47.61-.93c.42-.62.76-1.27,1.14-1.91l.55-1,.51-1,.51-1a9.73,9.73,0,0,0,.41-.89,16.12,16.12,0,0,0,.68-2,26.46,26.46,0,0,0,1-8.65,31.51,31.51,0,0,0-1.79-8.89,41.6,41.6,0,0,0-4.25-8.42" transform="translate(-98.4 -17.15)"/><path class="cls-14" d="M240.41,234.7a2.26,2.26,0,0,0,.34.23l1.05.64c.46.28,1,.64,1.7,1l2.45,1.2a39.84,39.84,0,0,0,7.1,2.34,13.87,13.87,0,0,0,2.22.4l2.39.32,2.55.08c.43,0,.87.05,1.32,0l1.36-.1a38.18,38.18,0,0,0,5.68-.83l2.95-.86c1-.3,2-.76,3-1.14A36.8,36.8,0,0,0,294,217.58a33.06,33.06,0,0,0,2.12-7.79l.09-.62c.06-.3.08-.62.16-.91l.56-1.46c.26-.73.53-1.45.8-2.18.55-1.46,1.09-2.93,1.65-4.41,8.85-23.74,19.23-50.81,30.46-78.61q2.53-6.19,5.08-12.45l1.07-2.59c.37-.81.76-1.58,1.15-2.37l1.15-2.36.58-1.18.14-.29s0-.11.08-.14l.15.08.61.29,4.79,2.29c.8.37,1.61.81,2.42,1.24s1.61.88,2.42,1.36,1.62.94,2.4,1.43l1.45.92c.84.56,1.69,1.12,2.52,1.7,1.66,1.16,3.3,2.36,4.89,3.64a83.18,83.18,0,0,1,9,8.31,69.14,69.14,0,0,1,7.66,9.8A53.6,53.6,0,0,1,383,142.6,50.6,50.6,0,0,1,385.67,155l0,.79v.39a.41.41,0,0,1,0,.12c0,.11,0,.22,0,.28s-.06.31-.09.49c0,.35-.17.75-.28,1.21" transform="translate(-98.4 -17.15)"/></g></g><g id="Layer_6" data-name="Layer 6"><text class="cls-15" transform="translate(28.44 365.18)">orQuestApp</text></g><g id="Layer_4" data-name="Layer 4"><path class="cls-16" d="M143.41,375.28c1.14,0,2.52-.78,4.14-2.4a46.29,46.29,0,0,0,4.86-5.58c1.62-2.1,3.12-4.08,4.38-5.94s2.16-3,2.76-3.72a1.16,1.16,0,0,1,1-.6.8.8,0,0,1,.48.18.83.83,0,0,1,.36.66,1.45,1.45,0,0,1-.24.78c-.78,1.32-1.62,2.7-2.4,4.08A121.84,121.84,0,0,1,151,374.8a15.63,15.63,0,0,1-3.24,3.36,5.68,5.68,0,0,1-3.54,1.26,7,7,0,0,1-1.8-.3A1.53,1.53,0,0,0,142,379a.36.36,0,0,0-.36.18,1.31,1.31,0,0,0-.3.48q-3,6.93-6.84,10.08c-2.58,2.16-5,3.24-7.44,3.24a8.58,8.58,0,0,1-7-3.66q-2.88-3.69-2.88-10.08a32.56,32.56,0,0,1,1.38-8.7A48.23,48.23,0,0,1,123,360.28a51.48,51.48,0,0,1,4.74-7.32,13.1,13.1,0,0,1,6.66-5,8.83,8.83,0,0,1,2.16-.24,6.24,6.24,0,0,1,1.74.3,1.32,1.32,0,0,0,.48.06,2.72,2.72,0,0,0,1-.18,9.33,9.33,0,0,1,3.42-.6h.12a4.08,4.08,0,0,1,4,2.88,14.28,14.28,0,0,1,.84,4.68,21.94,21.94,0,0,1-.3,3.42c-.24,1.14-.48,2.34-.78,3.48-1.14,4.44-2.46,8.94-4,13.44A.76.76,0,0,0,143.41,375.28Zm-11.16-12.12a1.31,1.31,0,0,1-.18.3,38.14,38.14,0,0,0-4.68,16.5,11.77,11.77,0,0,0,.78,4.2c.42.84.84,1.26,1.38,1.26,1,0,2.22-1.08,3.48-3.3a36.91,36.91,0,0,0,3.06-6.66,2.64,2.64,0,0,0,.12-.6,1.06,1.06,0,0,0-.54-.9,8.75,8.75,0,0,1-3.3-5.88,8.86,8.86,0,0,1-.06-1.26c0-.78.06-1.56.12-2.4.06-.54.12-1.14.18-1.74A2,2,0,0,0,132.25,363.16Zm9.24-8a4.2,4.2,0,0,0-.48.6c0,.06,0,.06-.06.12a25.57,25.57,0,0,0-3.84,13.62v.36a2.13,2.13,0,0,0,.12.6,1.23,1.23,0,0,0,.42.6c.48-1.74,1-3.42,1.56-5.16a86.65,86.65,0,0,0,3.06-11.28A4.38,4.38,0,0,0,141.49,355.12Z" transform="translate(-98.4 -17.15)"/><path class="cls-17" d="M168.31,360.22l3.78-4.68.6-.72a56.46,56.46,0,0,1,8.82-8.94,7.88,7.88,0,0,1,4.56-1.38h.36a2.77,2.77,0,0,1,2.4,1.68,7.86,7.86,0,0,1,.72,3.18,13.84,13.84,0,0,1-.36,3.12c-.06.42-.12.78-.18,1.14-.18,1-.36,2-.54,3a30.08,30.08,0,0,0-.6,4,2.92,2.92,0,0,0-.06.72,9,9,0,0,0,.12,1.2,6.17,6.17,0,0,0,1.74-1.5,1.59,1.59,0,0,0,.3-.36,3,3,0,0,0,.42-.48,3,3,0,0,1,.42-.48.86.86,0,0,1,.72-.36,1.14,1.14,0,0,1,1,.9.36.36,0,0,1-.06.24,25.31,25.31,0,0,1-4.38,5.58,5.56,5.56,0,0,1-3.48,1.8c-2.16,0-3.3-2.28-3.42-6.78a32.6,32.6,0,0,1,1.08-7.62,14.78,14.78,0,0,0-2,1.8c-.06.06-.12.18-.18.24a83.76,83.76,0,0,0-11.46,16.14A62.17,62.17,0,0,0,162.19,390a3.59,3.59,0,0,1-1.38,2.4,4,4,0,0,1-2.46.78,5.49,5.49,0,0,1-3.42-1.26,5,5,0,0,1-1.86-3.6,17,17,0,0,1-.24-3.24,75.8,75.8,0,0,1,1.38-12.9c.9-5,1.68-8.76,2.4-11.34a82.93,82.93,0,0,1,2.94-8.16A42.46,42.46,0,0,1,162,348.1a4,4,0,0,1,1.68-1.5,5.12,5.12,0,0,1,2.1-.48,5.57,5.57,0,0,1,3.18,1,3.3,3.3,0,0,1,1.38,2.76v.36a6.12,6.12,0,0,1-.6,2.28,39.51,39.51,0,0,0-3.48,10.32Z" transform="translate(-98.4 -17.15)"/><path class="cls-18" d="M240,392.08c2,.18,4,.48,6,.78a90.5,90.5,0,0,1,19.68,4.68,14.12,14.12,0,0,1,4.86,2.88,1.94,1.94,0,0,1,.78,1.08,1.16,1.16,0,0,1,.18.6.55.55,0,0,1-.24.48,1,1,0,0,1-.3.12.46.46,0,0,1-.3-.12,1.31,1.31,0,0,0-.3-.18c-.06,0-.06,0-.12-.06a20.33,20.33,0,0,0-8.88-2.82c-5.64-.84-11.34-1.44-17-1.74l-3.18-.24c-2.88-.18-5.76-.3-8.7-.3q-4.77,0-9.72.18a10.63,10.63,0,0,1-1.44.06c-4,.18-8,.48-11.94,1a33.44,33.44,0,0,0-6.36,1.38,2.35,2.35,0,0,1-1.08.24c-.54,0-.9-.36-1.14-1.08a1.23,1.23,0,0,0-.3-.54,3.64,3.64,0,0,1-.6-.42,10.45,10.45,0,0,1-.84-.72.91.91,0,0,1-.42-.84,2.08,2.08,0,0,1,.78-1.32,7.29,7.29,0,0,1,2.76-1.68,42.57,42.57,0,0,1,10.38-2.16,2,2,0,0,0,.6-.06,1.16,1.16,0,0,0,.6-.18,5.49,5.49,0,0,0-2.16-2.4,14.77,14.77,0,0,1-7.08-8.52,30.55,30.55,0,0,1-1.32-9c0-1.32.06-2.64.12-4,.42-3.06.9-6.06,1.5-9.12a73.87,73.87,0,0,1,3.78-13.8,68.3,68.3,0,0,1,6.48-12.9,42.29,42.29,0,0,1,6.66-7.92c.42-.35.78-.71,1.08-1a38.38,38.38,0,0,1,3.42-2.94,16.43,16.43,0,0,1,10.8-3.9,12.25,12.25,0,0,1,2,.18h.42a4.33,4.33,0,0,0,2,.54,6.75,6.75,0,0,0,2.4-.42l.48-.12a13.14,13.14,0,0,1,3.9-.6,12.28,12.28,0,0,1,5,1.08,18,18,0,0,1,4.38,3.11,20.67,20.67,0,0,1,4.32,6.37,29.72,29.72,0,0,1,1.86,7.31,26.33,26.33,0,0,1,.36,4.32,34.92,34.92,0,0,1-2,11.76,114.83,114.83,0,0,1-11.94,25.32,85,85,0,0,1-13,16.14l-.42.36a7.79,7.79,0,0,0-.84.72C237.43,391.84,238.75,392,240,392.08Zm-12.66-56a.47.47,0,0,0-.24.24,59.47,59.47,0,0,0-6.6,12.9,97.41,97.41,0,0,0-4.5,16.38,48.83,48.83,0,0,0-1.08,10.26c0,.78,0,1.62.06,2.46a10,10,0,0,0,3.72,7.68,5,5,0,0,0,3.06,1.14,4.33,4.33,0,0,0,2-.54,34.14,34.14,0,0,0,8.94-7.32A109.23,109.23,0,0,0,248,356.68a89.14,89.14,0,0,0,5.34-12.6,52,52,0,0,0,1.32-5,28.28,28.28,0,0,0,.48-5.1,23.7,23.7,0,0,0-.48-4.67,15.59,15.59,0,0,0-1.68-4.38,2.52,2.52,0,0,0-2.28-1.38,1.32,1.32,0,0,0-.48.06,11.36,11.36,0,0,0-5.82,3.17c-1.5,1.62-2.94,3.3-4.32,5-.24.35-.48.65-.72,1A85,85,0,0,0,228.85,348c-.24.48-.48,1-.78,1.5l-.48,1c0,.06,0,.06-.06.06a.72.72,0,0,1-.3.3.54.54,0,0,1-.42.18.35.35,0,0,1-.3-.12,1.31,1.31,0,0,1-.18-.3.22.22,0,0,0-.06-.18,3.23,3.23,0,0,0-.42-.78,1.3,1.3,0,0,0-.54-.48c-.42-.06-.66-.12-.78-.3a.45.45,0,0,1-.24-.42,2.16,2.16,0,0,1,.12-.66.65.65,0,0,1,.06-.3,15,15,0,0,1,.3-1.74c.6-2.58,1.32-5.22,2.1-7.86.18-.66.42-1.31.6-2Z" transform="translate(-98.4 -17.15)"/><path class="cls-19" d="M285.73,391c-1.44-1.92-2.22-4.92-2.4-8.94l-.24.48c-.84,1.5-1.8,3.06-2.82,4.68-2.46,3.78-5.16,5.64-8.16,5.64a7.22,7.22,0,0,1-5.94-3.24,15.28,15.28,0,0,1-3-9.6c0-5,1.86-11.88,5.52-20.7a74.91,74.91,0,0,1,4-8.34,19.93,19.93,0,0,1,1.62-2.34,3.81,3.81,0,0,1,2.82-1.2,5.71,5.71,0,0,1,3.18,1,3.2,3.2,0,0,1,1.5,2.88,4.93,4.93,0,0,1-.54,2,75.4,75.4,0,0,0-4.38,10.92l-.72,2.34a71,71,0,0,0-3.66,15.48,5.16,5.16,0,0,0-.06,1,6.17,6.17,0,0,1-.06,1,10.19,10.19,0,0,0,2-2.34,86.23,86.23,0,0,0,5.88-10.32c1.5-3.18,2.94-6.36,4.2-9.54s2.82-6.6,4.56-10.32a6.71,6.71,0,0,1,3.36-3.66,5.06,5.06,0,0,1,1.92-.42,3.62,3.62,0,0,1,2.64,1,3.39,3.39,0,0,1,1,2.52,23.76,23.76,0,0,1-.9,4.2c-3.78,12.78-5.7,21.24-5.7,25.44a17.17,17.17,0,0,0,.72,5.1c.18.6.48,1,.78,1a.22.22,0,0,0,.18.06c.24,0,.54-.18.84-.6a46.7,46.7,0,0,0,6.12-8.58c1.62-3,3.24-6.18,4.74-9.54,3.36-7.5,5.52-11.28,6.48-11.28a1.16,1.16,0,0,1,.6.18,1.51,1.51,0,0,1,.78,1.32c0,.54-1.38,4.32-4.14,11.22-5.1,12.66-9.24,20.22-12.3,22.56a9.46,9.46,0,0,1-5.1,1.74A6.37,6.37,0,0,1,285.73,391Z" transform="translate(-98.4 -17.15)"/><path class="cls-20" d="M312.67,372.7a22.63,22.63,0,0,0-.84,6,11,11,0,0,0,.78,4.38,2.75,2.75,0,0,0,2.7,1.86,3.63,3.63,0,0,0,1.32-.24c2-.72,4.26-2.52,6.9-5.34a112.64,112.64,0,0,0,7.92-9.6c2.64-3.54,5-6.78,7-9.6q1.26-1.8,2.16-3.06a1.62,1.62,0,0,1,1-.42,1.43,1.43,0,0,1,.84.3,1,1,0,0,1,.42.84,1.44,1.44,0,0,1-.36.9c-1.68,2.52-3.54,5.58-5.52,9.12s-4.08,7.08-6.36,10.62a60.8,60.8,0,0,1-7.32,9.48,20.3,20.3,0,0,1-8.28,5.52,9,9,0,0,1-2.7.42,7.49,7.49,0,0,1-6.18-3.18,18.13,18.13,0,0,1-3.24-8.46,31.72,31.72,0,0,1-.36-4.8,40.38,40.38,0,0,1,2.28-13.14,35.81,35.81,0,0,1,6.36-11.52,28.14,28.14,0,0,1,3.72-3.84,14.06,14.06,0,0,1,4.62-2.64,12.88,12.88,0,0,1,4.2-.72,9,9,0,0,1,4.08,1,4.26,4.26,0,0,1,2.52,3.66c.06.66.12,1.26.12,1.92a16.86,16.86,0,0,1-2.46,8.82,24.94,24.94,0,0,1-5.76,6.6c-2.22,1.74-4.08,2.58-5.64,2.58a2.39,2.39,0,0,1-2.1-1.08A7.52,7.52,0,0,0,312.67,372.7Zm6.18-10.56a4,4,0,0,0,2.46-1.08,10.51,10.51,0,0,0,2.28-2.58,5,5,0,0,0,.9-2.46,1.18,1.18,0,0,0-1-1.26,19.18,19.18,0,0,0-3.36,3,17.2,17.2,0,0,0-2.64,3.6A1.51,1.51,0,0,0,318.85,362.14Z" transform="translate(-98.4 -17.15)"/><path class="cls-21" d="M347.65,360c-.06.6-.12,1.2-.12,1.8a14.2,14.2,0,0,0,.66,4.14,39.14,39.14,0,0,0,1.5,4.2,45.69,45.69,0,0,1,3.18,9.12,13.5,13.5,0,0,1,.24,2.64,10.71,10.71,0,0,1-4.32,8.58,14.69,14.69,0,0,1-4.5,2.64,13.19,13.19,0,0,1-4.44.84,12,12,0,0,1-7.74-2.64,9.5,9.5,0,0,1-3.78-5.64c-.06-.66-.12-1.26-.12-1.92a12,12,0,0,1,3.42-8.4,1.64,1.64,0,0,1,1.14-.48.89.89,0,0,1,.42.06,4.13,4.13,0,0,1,.48.18,1,1,0,0,1,.24.42l.12.12a.76.76,0,0,1,.06.36,1.41,1.41,0,0,1-.12.48,13.81,13.81,0,0,0-1.08,4.92,6.33,6.33,0,0,0,1.14,4,3.2,3.2,0,0,0,2.76,1.5,4.91,4.91,0,0,0,2.82-1.08,13,13,0,0,0,3-3.36,6.88,6.88,0,0,0,.72-3,5.49,5.49,0,0,0-.06-1,20.19,20.19,0,0,0-1.44-5.82l-.18-.36c-.3-.72-.54-1.44-.84-2.1a34.23,34.23,0,0,1-1.86-5,19.37,19.37,0,0,1-.78-5.46,13.7,13.7,0,0,1,.54-3.78,12.12,12.12,0,0,1,4.74-7,16.06,16.06,0,0,1,10.26-3.3h.9a7.46,7.46,0,0,1,5.94,2.82,9.46,9.46,0,0,1,1.68,5.28,11.71,11.71,0,0,1-1.14,5.1,18.29,18.29,0,0,1-2.94,4.32,8.28,8.28,0,0,1-1.86,1.68,2.91,2.91,0,0,1-1.92.84,4.37,4.37,0,0,1-2.88-1.2,3.18,3.18,0,0,1-1.38-2.22,1.24,1.24,0,0,1,.54-1,7.32,7.32,0,0,0,2.88-2.34,5.32,5.32,0,0,0,1.32-3.36,2.67,2.67,0,0,0-1.44-2.28A9.24,9.24,0,0,0,347.65,360Z" transform="translate(-98.4 -17.15)"/><path class="cls-22" d="M369.55,391.06a20.21,20.21,0,0,1-4.86-8.1,25.64,25.64,0,0,1-1.14-8.1c0-7.8,2.1-17.28,6.3-28.38-1.32.06-2.58.12-3.78.24s-2.22.18-3,.18c-1.86,0-2.82-.6-2.82-1.8a8,8,0,0,1,.78-3.3.22.22,0,0,1,.06-.18c.3-.78.6-1.68,1-2.82s4.32-1.74,11.7-1.8a88.46,88.46,0,0,1,7.74-13.8,3.67,3.67,0,0,1,1.56-1.19,8.26,8.26,0,0,1,2.7-.54l1.26.06a2.69,2.69,0,0,0,.66.06,1.33,1.33,0,0,1,.66.23,8.84,8.84,0,0,1,.78.61,1.07,1.07,0,0,1,.42.54,4.27,4.27,0,0,0,.66,1.38,2.62,2.62,0,0,1,.42,1.43c0,1-.66,2.71-2,5.29-.84,1.67-1.8,3.77-2.82,6.23l.3.06c6.78.48,10.68,1.08,11.82,1.74a2.57,2.57,0,0,1,1.56,2.34,5.66,5.66,0,0,1-.84,2.46l-.06.12a16.54,16.54,0,0,1-1,2.34,2.72,2.72,0,0,1-2.46,1.68,11.15,11.15,0,0,1-3.12-.66,60.94,60.94,0,0,0-10-1l-1.5,4a97.71,97.71,0,0,0-3.06,10.38,52,52,0,0,0-1.62,12.42,20.67,20.67,0,0,0,.42,4.44c.66,3.06,1.74,4.56,3.3,4.56,2.34,0,5.64-3.06,10-9.18a130.06,130.06,0,0,0,9.48-15.84,1.28,1.28,0,0,1,1.2-.78,1.75,1.75,0,0,1,.54.12,1.25,1.25,0,0,1,.66,1,3.1,3.1,0,0,1-.12.66c-1.68,4.2-3.84,8.88-6.48,14.1s-5.22,9.84-7.74,13.8q-5,7.74-11.16,7.74A9.23,9.23,0,0,1,369.55,391.06Z" transform="translate(-98.4 -17.15)"/><path class="cls-23" d="M439.21,367.6l.54-2.58a39,39,0,0,1,1.14-4.5,1.61,1.61,0,0,0,.05-.42c0-.18-.12-.3-.42-.3h-.3l-8,.54a1,1,0,0,0-.77.24,2.48,2.48,0,0,0-.42.54l-.06.12a191.11,191.11,0,0,0-9.6,18.36c-.24.54-.48,1.08-.78,1.62-1.8,3.78-3.72,7.5-5.82,11.16a10.52,10.52,0,0,1-1.8,2.4,2.15,2.15,0,0,1-1.44.6,4,4,0,0,1-1.08-.18,1.17,1.17,0,0,1-.42-.06,1.91,1.91,0,0,1-1.44-1.08,4.68,4.68,0,0,1-.48-2.22c0-2.52.84-5.76,2.46-9.78s3.12-7.44,4.56-10.5a30.51,30.51,0,0,0,1.62-3.54,33.73,33.73,0,0,1,2.4-4.62l.72-1.44a1.68,1.68,0,0,0,.3-.48c0-.18-.12-.3-.42-.3h-.48l-3.6.3c-4.2.42-8.34.66-12.36.66-.9,0-1.8,0-2.7-.06a2.29,2.29,0,0,1-1.08-.54,1.33,1.33,0,0,1-.54-1c0-.48.54-.9,1.56-1.2s3-.48,5.46-.78,5-.66,7.74-1c2.46-.3,4.56-.54,6.3-.78s2.76-.42,3.06-.48c1.56-2.58,3.24-5.1,5.1-7.68.3-.42.59-.78.84-1.14,1.74-2.34,3.48-4.68,5.33-7,3.3-4,6.84-7.8,10.56-11.51l1-1a91.73,91.73,0,0,1,9.35-8.64c3.6-2.69,6.54-4.07,8.88-4.07a2.62,2.62,0,0,1,2.82,3,11.74,11.74,0,0,1-.78,3.84c-2,6.11-4.5,14.21-7.5,24.23s-5.76,19.8-8.22,29.16-3.9,16.08-4.26,20.1a1.65,1.65,0,0,1-.42.54c-.06.06-.12.18-.18.24a9.41,9.41,0,0,1-3.48.84,4,4,0,0,1-3.36-1.5,8.25,8.25,0,0,1-1.73-3.9,27.9,27.9,0,0,1-.49-5.16,48.17,48.17,0,0,1,.61-7.92q.63-3.69.89-5.22c.07-.3.12-.48.12-.54C438.48,371.2,438.78,369.4,439.21,367.6Zm-5.34-11.4a19.48,19.48,0,0,0,4.14-.48c1.31-.18,2.58-.3,3.83-.36.18,0,.48-.54,1-1.56s1-2.34,1.68-3.9,1.2-3.12,1.86-4.74c.55-1.38,1.09-2.58,1.5-3.72s.72-1.8.9-2.22a35.76,35.76,0,0,0,1.5-3.48A147.42,147.42,0,0,0,433.87,356.2Z" transform="translate(-98.4 -17.15)"/><path class="cls-24" d="M456.13,426.58a3.57,3.57,0,0,1-1.5-1.26c-.54-1.14-.78-3.12-.78-5.94a140.86,140.86,0,0,1,1.74-19c1.14-7.86,2.64-15.84,4.38-23.94a211.5,211.5,0,0,1,5.46-20.64c1.86-5.7,3.48-9,5-9.78a6.45,6.45,0,0,1,2.22-.48,3.44,3.44,0,0,1,2.64,1.08,4.32,4.32,0,0,1,1,3,14.68,14.68,0,0,1-.66,4.26l-.3,1.44a20.91,20.91,0,0,0-.42,2.28l2.28-2.76a29.8,29.8,0,0,1,6.3-5.7,15.68,15.68,0,0,1,6.9-2.94l.95-.06c2.29,0,3.91,1.2,4.87,3.54a11.92,11.92,0,0,1,.77,4,23.4,23.4,0,0,1-.84,6.24,77.1,77.1,0,0,1-5.69,15.66c-3.19,7-7.38,12.3-12.66,15.9a9.37,9.37,0,0,1-5,1.32c-2.94,0-4.38-1-4.38-3.12l.06-.66a137,137,0,0,0-3.18,16,184.6,184.6,0,0,1-4,20.28,3.19,3.19,0,0,1-3,1.86A4.12,4.12,0,0,1,456.13,426.58Zm19.68-45.12a57.16,57.16,0,0,0,7.5-12.36,111.36,111.36,0,0,0,5-13.38,32.57,32.57,0,0,0-8.64,9.54,94.43,94.43,0,0,0-5.88,11.52l-.72,1.56a13.92,13.92,0,0,0-.12,1.44q0,2.16,1.26,2.16h.12A3.33,3.33,0,0,0,475.81,381.46Z" transform="translate(-98.4 -17.15)"/><path class="cls-25" d="M492.37,426.58a3.57,3.57,0,0,1-1.5-1.26c-.54-1.14-.78-3.12-.78-5.94a140.86,140.86,0,0,1,1.74-19c1.14-7.86,2.64-15.84,4.38-23.94a211.5,211.5,0,0,1,5.46-20.64c1.86-5.7,3.48-9,5-9.78a6.55,6.55,0,0,1,2.23-.48,3.47,3.47,0,0,1,2.64,1.08,4.32,4.32,0,0,1,1,3,14.35,14.35,0,0,1-.66,4.26l-.3,1.44c-.17.84-.35,1.62-.42,2.28l2.29-2.76a29.75,29.75,0,0,1,6.29-5.7,15.68,15.68,0,0,1,6.9-2.94l1-.06c2.28,0,3.9,1.2,4.86,3.54a11.92,11.92,0,0,1,.78,4,23.4,23.4,0,0,1-.84,6.24,77.73,77.73,0,0,1-5.7,15.66c-3.18,7-7.38,12.3-12.66,15.9a9.34,9.34,0,0,1-5,1.32c-2.95,0-4.38-1-4.38-3.12l.05-.66a139.63,139.63,0,0,0-3.17,16,184.6,184.6,0,0,1-4,20.28,3.19,3.19,0,0,1-3,1.86A4.12,4.12,0,0,1,492.37,426.58Zm19.68-45.12a57.52,57.52,0,0,0,7.49-12.36,111.36,111.36,0,0,0,5-13.38,32.68,32.68,0,0,0-8.63,9.54A94.43,94.43,0,0,0,510,376.78l-.72,1.56a11.6,11.6,0,0,0-.12,1.44q0,2.16,1.26,2.16h.12A3.33,3.33,0,0,0,512.05,381.46Z" transform="translate(-98.4 -17.15)"/></g><g id="Layer_5" data-name="Layer 5"><text class="cls-26" transform="translate(26.65 363.18)">orQuestApp</text></g></svg>